<?xml version="1.0" encoding="utf-8"?>
<!-- Generator: Adobe Illustrator 12.0.1, SVG Export Plug-In . SVG Version: 6.00 Build 51448)  -->
<!DOCTYPE svg PUBLIC "-//W3C//DTD SVG 1.1//EN" "http://www.w3.org/Graphics/SVG/1.1/DTD/svg11.dtd" [
	<!ENTITY ns_svg "http://www.w3.org/2000/svg">
	<!ENTITY ns_xlink "http://www.w3.org/1999/xlink">
]>
<svg  version="1.1" id="Layer_1" xmlns="&ns_svg;" xmlns:xlink="&ns_xlink;" width="707.399" height="321.336"
	 viewBox="0 0 707.399 321.336" overflow="visible" enable-background="new 0 0 707.399 321.336" xml:space="preserve">
<g>
	<path d="M489.354,204.501l2.183-6.666h-21.217l2.425,6.666v9.332c-1.982-0.937-3.992-1.604-6.009-2.042
		c-1.739-0.453-3.481-0.895-5.225-1.332c-4.97-1.257-9.41-2.304-13.87-2.405c-4.529-0.113-9.375,0.31-13.944,1.477
		c-3.138,0.791-6.194,1.901-9.108,3.309c-2.913,1.407-5.684,3.11-8.255,5.074c-1.155,0.921-2.231,1.941-3.214,3.045
		c-5.251,6.024-6.852,12.878-7.2,19.236c-0.133,3.875,0.561,7.926,2.555,11.947c1.192,2.493,2.686,4.843,4.437,6.981
		c1.752,2.138,3.763,4.063,5.975,5.721c2.212,1.658,4.625,3.047,7.168,4.132c8.902,3.563,18.327,4.565,27.706,3.013
		c5.612-0.952,11.186-2.267,16.72-3.97l5.176,4.716l16.702-0.055l-3.003-8.793V204.501z M472.521,248.934
		c0.039,1.639-0.188,3.283-0.677,4.847c-0.487,1.564-1.234,3.048-2.201,4.371c-2.751,3.764-6.779,5.523-10.293,7.027
		c-5.053,2.022-10.361,2.68-15.831,1.206c-2.694-0.699-5.289-1.787-7.674-3.224c-2.385-1.436-4.561-3.221-6.437-5.278
		c-1.877-2.057-3.455-4.388-4.636-6.864c-2.359-4.917-3.113-10.502-2.107-15.862c0.496-2.66,1.414-5.241,2.711-7.616
		c1.296-2.375,2.972-4.543,4.938-6.401c2.208-2.195,4.787-4.019,7.597-5.36c6.754-3.179,14.707-3.795,22.255-0.561
		c1.299,0.576,2.549,1.266,3.728,2.06s2.288,1.691,3.234,2.595c0.946,0.904,1.73,1.813,2.425,2.788
		c1.454,2.04,2.437,4.25,3.002,6.472L472.521,248.934z"/>
	<path d="M650.867,272.232l-3.336-9.356l-0.024-28.61c-0.001-1.253,0.246-2.503,0.662-3.686c0.415-1.183,1.023-2.297,1.791-3.288
		c0.769-0.99,1.696-1.857,2.738-2.555c2.578-1.759,5.66-2.109,8.563-2.67c3.476-0.565,7.007-0.771,10.521-0.617l-0.039-12.22
		c-2.562-1.52-5.565-1.834-8.557-0.552l-13.841,4.809l-7.25-4.222l-21.14,0.005l3.193,10.209l0.029,43.424l-3.359,9.329H650.867z"/>
	<polygon points="283.366,195.428 259.451,195.395 261.659,204.106 261.693,272.269 287.053,272.257 283.386,262.875 	"/>
	<path d="M353.415,252.234l-31.302-41.503l-24.801-0.05l37.718,54.116c0.575,0.862,1.326,1.102,2.076,1.077l3.071-0.009
		c0.646,0.033,1.285,0.192,1.87,0.468c0.585,0.275,1.115,0.667,1.55,1.146c0.911,0.999,1.343,2.314,1.282,3.556
		c-0.03,0.646-0.189,1.285-0.462,1.871l-6.582,14.098l15.62-0.005l40.488-76.268h-15.586L353.415,252.234z"/>
	<path d="M365.954,181.213c-0.756-2.185-1.904-4.233-3.371-6.02c-1.468-1.787-3.254-3.313-5.249-4.481
		c-3.987-2.35-8.822-3.212-13.376-2.389c-2.276,0.406-4.48,1.22-6.475,2.389c-1.995,1.169-3.781,2.694-5.248,4.481
		c-3.065,3.721-4.543,8.381-4.451,12.834h39.25C367.075,185.717,366.711,183.398,365.954,181.213z"/>
	<path d="M0,0l0.231,321.212l707.168,0.124V0H0z M698.471,313.402L7.758,313.565L6.945,7.935l691.728,0.193L698.471,313.402z"/>
	<path d="M36.548,281.577l-2.694,8.229h26.194l-2.993-8.229v-11.521c2.448,1.156,4.928,1.98,7.418,2.521
		c2.147,0.559,4.298,1.104,6.451,1.645c4.127,1.03,8.059,2.021,11.765,2.52c1.776,0.241,3.566,0.39,5.36,0.462
		c1.794,0.072,3.592,0.067,6.479-0.186s6.86-0.755,10.735-1.69c3.874-0.937,7.648-2.308,11.23-4.063
		c3.582-1.757,6.973-3.898,9.323-5.612c2.35-1.715,3.659-3.001,4.861-4.378c5.142-5.834,7.374-12.595,8.395-18.805
		c0.78-4.854,0.739-9.931-0.784-14.989c-0.481-1.629-1.089-3.222-2.284-5.482c-1.195-2.261-2.978-5.188-5.11-7.841
		c-2.132-2.653-4.615-5.03-7.345-7.078s-5.707-3.766-9.063-5.173c-6.858-2.854-14.837-4.384-22.426-4.509
		c-7.367-0.208-14.682,1.342-21.974,2.945c-3.44,0.816-6.836,1.817-10.233,2.818l-6.39-5.822l-20.621,0.067l3.707,10.855V281.577z
		 M57.192,229.784c0.163-5.101,0.408-7.123,0.991-9.05s1.506-3.758,2.71-5.374c2.472-3.272,5.595-5.329,8.363-6.72
		c4.686-2.386,9.074-3.886,13.836-4.34c1.681-0.152,3.376-0.153,5.064-0.021c1.688,0.132,3.368,0.396,5.818,1.158
		c2.45,0.764,5.671,2.027,8.625,3.76c2.953,1.733,5.639,3.937,7.956,6.477c2.316,2.54,4.265,5.417,5.723,8.476
		c2.912,6.07,3.843,12.965,2.601,19.582c-0.612,3.284-1.745,6.472-3.345,9.403s-3.667,5.607-6.276,8.084s-5.763,4.755-9.216,6.424
		c-3.453,1.67-7.207,2.731-11.015,3.084s-7.671-0.004-10.431-0.495s-4.418-1.118-6.018-1.856c-1.6-0.739-3.143-1.591-4.598-2.57
		c-1.456-0.98-2.825-2.088-3.993-3.204c-2.49-2.374-3.991-4.737-5.265-7.258c-0.669-1.333-1.262-2.717-1.518-7.498
		C56.949,243.063,57.03,234.884,57.192,229.784z"/>
	<path d="M156.505,257.861c1.708,2.455,3.834,4.613,6.202,6.491c2.368,1.879,4.979,3.478,7.697,4.854
		c2.719,1.376,5.547,2.529,8.453,3.432c8.937,2.81,18.634,2.95,28.229,1.348c3.183-0.555,6.324-1.342,9.124-2.175
		c2.8-0.833,5.257-1.711,7.594-2.845s4.554-2.521,6.624-4.108s3.995-3.373,5.619-5.451s2.948-4.448,3.942-6.948
		c0.994-2.499,1.658-5.128,1.932-7.792c0.273-2.664,0.157-5.362-0.028-7.29c-0.185-1.927-0.438-3.083-0.771-4.216
		c-0.991-3.358-2.572-6.317-5.455-9.628c-0.9-1.023-1.867-1.987-2.891-2.889c-1.023-0.901-2.102-1.741-4.256-3.147
		c-2.154-1.407-5.384-3.381-8.811-4.935c-3.427-1.553-7.052-2.685-10.754-3.385c-3.702-0.701-7.483-0.972-11.041-0.961
		c-3.557,0.01-6.892,0.3-10.177,0.873c-3.285,0.572-6.521,1.427-9.646,2.576s-6.137,2.595-8.305,3.719
		c-2.168,1.124-3.492,1.928-4.759,2.812c-1.268,0.884-2.478,1.849-3.639,2.876c-1.16,1.027-2.27,2.117-3.638,3.937
		c-1.369,1.818-2.996,4.367-4.132,7.127c-2.22,5.388-2.603,11.708-0.927,17.631C153.507,252.652,154.797,255.405,156.505,257.861z
		 M171.141,234.39c0.459-1.533,1.032-3.031,1.714-4.479c0.682-1.447,1.474-2.843,2.351-4.111c0.876-1.268,1.836-2.408,2.91-3.432
		c3.132-3.075,7.449-4.769,11.091-5.71c1.201-0.307,2.417-0.552,3.644-0.742c1.226-0.189,2.462-0.324,4.272-0.338
		s4.194,0.094,6.515,0.549c2.321,0.456,4.578,1.26,6.697,2.342c2.119,1.081,4.1,2.441,6.014,4.318s3.761,4.271,5.16,6.906
		c2.785,5.206,3.746,11.466,2.724,17.349c-0.496,2.904-1.45,5.688-2.821,8.246c-1.372,2.56-3.163,4.895-5.291,6.852
		c-2.129,1.957-4.596,3.536-6.559,4.552s-3.42,1.467-4.894,1.833c-1.474,0.367-2.964,0.649-4.471,0.851
		c-1.506,0.201-3.029,0.32-5.344,0.063s-5.422-0.893-8.312-2.081s-5.562-2.93-7.816-5.093s-4.091-4.746-5.344-6.885
		c-1.253-2.14-1.921-3.833-2.42-5.573C169.543,245.056,169.584,239.471,171.141,234.39z"/>
	<path d="M290.58,167.6c2.298-6.542,5.766-12.674,10.184-18.021c4.418-5.347,9.788-9.908,15.779-13.404
		c11.977-7.024,26.475-9.603,40.141-7.14c6.829,1.215,13.443,3.645,19.435,7.14s11.36,8.057,15.778,13.404
		c4.418,5.347,7.886,11.479,10.184,18.021c2.298,6.542,3.426,13.495,3.34,20.428h95.752c0.092-17.938-2.944-35.902-8.986-52.793
		c-6.043-16.891-15.093-32.708-26.582-46.491s-25.418-25.535-40.942-34.535C393.63,36.125,356.133,29.5,320.773,35.86
		c-17.67,3.138-34.785,9.405-50.301,18.42s-29.435,20.779-40.911,34.573c-11.477,13.794-20.511,29.62-26.538,46.516
		c-6.026,16.896-9.045,34.864-8.938,52.802l93.154-0.144C287.154,181.095,288.282,174.142,290.58,167.6z"/>
	<path d="M519.573,257.861c1.708,2.455,3.834,4.613,6.202,6.491c2.368,1.879,4.979,3.478,7.697,4.854s5.547,2.529,8.453,3.432
		c8.936,2.81,18.634,2.95,28.229,1.347c3.183-0.554,6.324-1.341,9.124-2.174c2.799-0.833,5.257-1.711,7.594-2.845
		s4.554-2.521,6.624-4.108s3.995-3.373,5.619-5.451c1.623-2.078,2.947-4.448,3.941-6.948c0.994-2.499,1.658-5.128,1.932-7.792
		c0.274-2.664,0.157-5.362-0.027-7.29c-0.186-1.927-0.439-3.084-0.771-4.216c-0.991-3.358-2.572-6.317-5.455-9.628
		c-0.9-1.023-1.867-1.987-2.891-2.889s-2.102-1.741-4.256-3.147c-2.154-1.407-5.384-3.381-8.812-4.935
		c-3.427-1.553-7.051-2.685-10.754-3.385c-3.702-0.701-7.483-0.972-11.04-0.961c-3.558,0.01-6.893,0.3-10.178,0.873
		c-3.285,0.572-6.521,1.427-9.646,2.576c-3.124,1.149-6.137,2.595-8.305,3.719s-3.491,1.928-4.759,2.812s-2.479,1.849-3.639,2.876
		s-2.27,2.117-3.639,3.937c-1.368,1.818-2.996,4.367-4.132,7.127c-2.22,5.388-2.603,11.708-0.927,17.631
		C516.575,252.652,517.865,255.405,519.573,257.861z M534.209,234.389c0.459-1.532,1.031-3.03,1.714-4.478s1.475-2.843,2.351-4.111
		c0.877-1.268,1.837-2.408,2.91-3.432c3.132-3.075,7.449-4.769,11.091-5.71c1.201-0.307,2.417-0.552,3.644-0.742
		c1.226-0.189,2.462-0.324,4.271-0.338c1.811-0.014,4.194,0.094,6.515,0.549c2.321,0.456,4.579,1.26,6.698,2.341
		c2.119,1.082,4.1,2.442,6.014,4.319s3.761,4.271,5.16,6.906c2.785,5.206,3.745,11.466,2.723,17.349
		c-0.496,2.904-1.449,5.688-2.821,8.246c-1.372,2.56-3.162,4.895-5.291,6.852s-4.596,3.536-6.558,4.552
		c-1.963,1.016-3.421,1.467-4.895,1.833c-1.474,0.367-2.964,0.649-4.471,0.851s-3.029,0.32-5.344,0.063
		c-2.315-0.258-5.423-0.893-8.313-2.081c-2.889-1.188-5.562-2.93-7.815-5.093c-2.255-2.163-4.092-4.746-5.344-6.885
		c-1.253-2.14-1.922-3.833-2.421-5.573C532.611,245.056,532.652,239.471,534.209,234.389z"/>
</g>
</svg>
